# xmcd CD database file
#
# Track frame offsets:
#	183
#	15225
#	26400
#	35598
#	49375
#	64203
#	73775
#	88265
#	103800
#	112888
#	126543
#	139170
#	154783
#	169430
#	179128
#	192285
#	203880
#	218060
#	230240
#	242463
#
# Disc length: 3387 seconds
#
# Revision: 1
# Processed by: cddbd v1.5.2PL0 Copyright (c) Steve Scherf et al.
# Submitted via: CDex 1.51
#
DISCID=300d3914
DTITLE=Various Artist - The Stars Salute Johnny Mercer
DYEAR=1996
DGENRE=Jazz
TTITLE0=Johnny Mercer -  Ac-Cent-Tchu-Ate The Positive
TTITLE1=Anita O'Day - Skylark
TTITLE2=Pat Boone - Bernadine
TTITLE3=Dinah Washington - Dream
TTITLE4=Benny Goodman AHO - Goody Goody
TTITLE5=Frank Sinatra - Laura
TTITLE6=Louis Jordan and His Tympany Five - The G.I. Jive
TTITLE7=Hoagy Carmichael - Lazy Bones
TTITLE8=Ann Richards - Dearly Beloved
TTITLE9=Jerry Butler - Moon River
TTITLE10=Glenn Miller AHO - Fool's Rush In (Where Angels Fear To Tread)
TTITLE11=Lena Horne - Cuckoo in the Clock
TTITLE12=Billy Eckstine - That Old Black Magic
TTITLE13=Tony Bennet - Jeepers Creepers
TTITLE14=Bng Crosby - I'm An Old Cowhand (From the Rio Grande)
TTITLE15=Jimmy Dorsey AHO - Arthur Murray Taught Me Dancing in a Hurry
TTITLE16=Woody Herman AHO - Blues in the Night
TTITLE17=Billie Holiday - Trav'lin Light
TTITLE18=Carmen McRae - Day In Day Out
TTITLE19=Chris Connor - Out Of This World
EXTD=YEAR: 1996
EXTT0=
EXTT1=
EXTT2=
EXTT3=
EXTT4=
EXTT5=
EXTT6=
EXTT7=
EXTT8=
EXTT9=
EXTT10=
EXTT11=
EXTT12=
EXTT13=
EXTT14=
EXTT15=
EXTT16=
EXTT17=
EXTT18=
EXTT19=
PLAYORDER=
